/* XPM */
static char *document_new_xpm[] = {
/* columns rows colors chars-per-pixel */
"24 24 91 1 ",
"  c #888A85",
". c #898B86",
"X c #8A8C88",
"o c #8C8E89",
"O c #8D8E8A",
"+ c #8D8F8A",
"@ c #8F908C",
"# c #8F918C",
"$ c #939490",
"% c #9A9C98",
"& c #9C9E9A",
"* c #9C9E9B",
"= c #9FA19D",
"- c #A2A4A0",
"; c #A6A7A4",
": c #B7B9B6",
"> c #C3C4C1",
", c #C7C8C5",
"< c #CACBC9",
"1 c #CCCDCB",
"2 c #CDCECB",
"3 c gray84",
"4 c #D7D8D6",
"5 c #D8D8D8",
"6 c #DADADA",
"7 c #E0E1DE",
"8 c #E1E2DF",
"9 c #E1E3E0",
"0 c #E6E6E4",
"q c #EAECE8",
"w c #EBECE9",
"e c #EBEDE9",
"r c #ECEDEA",
"t c #ECECEB",
"y c #ECEEEA",
"u c #ECEEEB",
"i c #EDEEEB",
"p c #EDEFEB",
"a c #EDEFEC",
"s c #EEEFEC",
"d c #EEF0ED",
"f c #EFF0ED",
"g c #EFF0EE",
"h c #EFF1EE",
"j c #F0F1EE",
"k c #F0F1EF",
"l c #F0F2EF",
"z c #F1F2EF",
"x c #F1F1F1",
"c c #F1F2F0",
"v c #F1F3F0",
"b c #F2F3F0",
"n c #F2F3F1",
"m c #F3F3F2",
"M c #F2F4F1",
"N c #F3F4F1",
"B c #F3F4F2",
"V c #F4F5F3",
"C c #F4F4F4",
"Z c #F4F5F4",
"A c #F5F5F4",
"S c gray96",
"D c #F5F6F4",
"F c #F5F6F5",
"G c #F6F6F5",
"H c #F6F7F5",
"J c #F6F7F6",
"K c #F7F7F6",
"L c #F7F8F6",
"P c #F7F8F7",
"I c #F8F8F7",
"U c #F8F9F7",
"Y c #F8F9F8",
"T c #F9F9F8",
"R c #F9FAF9",
"E c #FAFAF9",
"W c gray98",
"Q c #FAFBFA",
"! c #FBFBFA",
"~ c #FBFBFB",
"^ c #FBFCFB",
"/ c #FCFCFB",
"( c gray99",
") c #FCFDFC",
"_ c #FDFDFC",
"` c #FDFDFD",
"' c #FDFEFD",
"] c #FEFEFD",
"[ c #FEFEFE",
"{ c white",
"} c None",
/* pixels */
"}}}#            o}}}}}}}",
"}}#,W{{{{{{{{{{s;o}}}}}}",
"}} WWbbzdddieeq06-O}}}}}",
"}} {FBbzzddsiie3F5=O}}}}",
"}} {FFVVbbkdsse2{b3%}}}}",
"}} {FFVVCbbkdzs>{{x3%}}}",
"}} {UUFFZbBbbkd:*$X  O}}",
"}} {WUUFFZZbbbkk9779b }}",
"}} {WWUPPPVVVBzzssss{ }}",
"}} {/^WWPPUFVVVBbbkd{ }}",
"}} {{W/^WUUFFFVbbbzz{ }}",
"}} {{{/W^WWPUFFFVmbz{ }}",
"}} {{{{W/^WWUUKKVVVb{ }}",
"}} {{{{{{/^/WUUKFFVV{ }}",
"}} {{{{{{{^W^WWUKKFF{ }}",
"}} {{{{{{{{{//!WUUUF{ }}",
"}} {{{{{{{{{{{W/WWUU{ }}",
"}} {{{{{{{{{{{{W^WWU{ }}",
"}} {{{{{{{{{{{{W/W^W{ }}",
"}} {{{{{{{{{{{{{{{^^{ }}",
"}} {{{{{{{{{{{{{{{^{{ }}",
"}}O1{{{{{{{{{{{{{{{{<O}}",
"}}}O                O}}}",
"}}}}}}}}}}}}}}}}}}}}}}}}"
};
