/* XPM */
static char *document_open_xpm[] = {
/* columns rows colors chars-per-pixel */
"24 24 85 1 ",
"  c #6E705A",
". c #74785E",
"X c #777B61",
"o c #777B62",
"O c #787B61",
"+ c #787C62",
"@ c #787C63",
"# c #797D63",
"$ c #7A7E63",
"% c #7B7E64",
"& c #7B7F66",
"* c #7B8065",
"= c #7C8067",
"- c #7D8167",
"; c #7E8167",
": c #7D8267",
"> c #7F8468",
", c #81856A",
"< c #81866A",
"1 c #83876C",
"2 c #84886C",
"3 c #84886F",
"4 c #868A73",
"5 c #898D72",
"6 c #898D73",
"7 c #8A8E73",
"8 c #888B74",
"9 c #91957B",
"0 c #91947E",
"q c #A4A78F",
"w c #B0B3A0",
"e c #B6BBA0",
"r c #BEC1A4",
"t c #BEC1AD",
"y c #C4C8A8",
"u c #CBD0AC",
"i c #CED3AE",
"p c #CED3AF",
"a c #C2C4B2",
"s c #CACCBE",
"d c #D0D5B1",
"f c #D0D5B2",
"g c #D2D7B7",
"h c #D3D7B7",
"j c #D4D9B9",
"k c #D2D5C1",
"l c #D7DBC0",
"z c #D5D8C6",
"x c #D7DAC8",
"c c #DADCC9",
"v c #DCDFC8",
"b c #DDDFCD",
"n c #DDE0C7",
"m c #DDE0C8",
"M c #DEE1CE",
"N c #DFE1D2",
"B c #E1E3D2",
"V c #E1E3D3",
"C c #E2E4D3",
"Z c #E0E2D5",
"A c #E1E2D7",
"S c #E3E5D4",
"D c #E3E5D6",
"F c #E4E6D7",
"G c #E5E8D6",
"H c #E6E8D7",
"J c #E1E3D8",
"K c #E3E5D9",
"L c #E4E6DA",
"P c #E6E7DC",
"I c #E6E9D8",
"U c #E6E8D9",
"Y c #E7E9D9",
"T c #E7E9DA",
"R c #E8EADB",
"E c #E9EBDB",
"W c #E9EBDC",
"Q c #E8EADD",
"! c #E8EADE",
"~ c #EAECDC",
"^ c #EAECDD",
"/ c #E9EBE1",
"( c #EDEFE2",
") c #F0F2E7",
"_ c None",
/* pixels */
"________________________",
"________________________",
"________________________",
"___%XXOOX*______________",
"__-z^^EE^k-_____________",
"__XEdpiidYX_____________",
"__X^pppip^-XXXXXXXX%____",
"__X^ppiipn^^^^^^^^^YO___",
"__XEpppppppppiiippp^X___",
"__XEuuuuuuuuuuuuuuuYX___",
"__XYyyyyyyyyyyyyyyyYX___",
"__XLrrrrrrrrrrrrrrrYX___",
"__XHeeeeeeeeeeeeeeeHX___",
"__XFq75777555577757911-_",
"__XD1a)E^EEEEEEEEE^Y(/8_",
"__XD-AHvvmvvvnnnmcmmYNO_",
"__Xx8PvlllllllllllllYsO_",
"__XNt!jgggggggggggggQwO_",
"__XVcCpppppppppppppgP0__",
"__OMVLMMMMMMMMMMMMMKN-__",
"__ *1111111111111112>X__",
"________________________",
"________________________",
"________________________"
};
