/* XPM */
static char *document_save_xpm[] = {
/* columns rows colors chars-per-pixel */
"24 24 183 2 ",
"   c #1A3A68",
".  c #555753",
"X  c #565854",
"o  c #575955",
"O  c #585A56",
"+  c #595B57",
"@  c #53585A",
"#  c #555A5C",
"$  c #585B59",
"%  c #565F67",
"&  c #566067",
"*  c #586269",
"=  c #5A636B",
"-  c #606261",
";  c #646665",
":  c #666969",
">  c #686B6B",
",  c #A40000",
"<  c #CC0000",
"1  c #EF2929",
"2  c #204882",
"3  c #204984",
"4  c #204A87",
"5  c #214A87",
"6  c #214B87",
"7  c #214B88",
"8  c #224B88",
"9  c #214C88",
"0  c #224C88",
"q  c #234C88",
"w  c #224D88",
"e  c #234C89",
"r  c #234D8A",
"t  c #244D89",
"y  c #254F8A",
"u  c #3E6494",
"i  c #3F6695",
"p  c #3465A4",
"a  c #3566A5",
"s  c #3D67A0",
"d  c #3768A5",
"f  c #3768A7",
"g  c #3F6AA2",
"h  c #396AA7",
"j  c #3E6DAB",
"k  c #3F6EAB",
"l  c #406FAA",
"z  c #4270AD",
"x  c #4270AE",
"c  c #4472AE",
"v  c #4472AF",
"b  c #4574B0",
"n  c #4674B0",
"m  c #4675B0",
"M  c #4675B1",
"N  c #4977B2",
"B  c #4B79B4",
"V  c #4C7AB4",
"C  c #4D7BB5",
"Z  c #4F7DB6",
"A  c #537CB3",
"S  c #507DB7",
"D  c #517EB7",
"F  c #527FB8",
"G  c #5781B5",
"H  c #5680B7",
"J  c #5681B7",
"K  c #5581BA",
"L  c #5783BB",
"P  c #5784BC",
"I  c #5882B8",
"U  c #5A84B8",
"Y  c #5D85B9",
"T  c #5C86BA",
"R  c #5884BC",
"E  c #5985BD",
"W  c #5A86BD",
"Q  c #5A86BE",
"!  c #5B86BE",
"~  c #5C87BF",
"^  c #5D88BF",
"/  c #6189BC",
"(  c #6189BD",
")  c #658CBF",
"_  c #668EBF",
"`  c #5D89C0",
"'  c #5E89C0",
"]  c #5F8AC1",
"[  c #608BC2",
"{  c #618CC2",
"}  c #628CC3",
"|  c #648FC4",
" . c #698FC0",
".. c #6791C6",
"X. c #6B91C2",
"o. c #6E93C2",
"O. c #6992C7",
"+. c #6E94C4",
"@. c #6A94C8",
"#. c #6B95C9",
"$. c #6C95C9",
"%. c #7196C4",
"&. c #7498C6",
"*. c #7699C7",
"=. c #779BC8",
"-. c #789BC8",
";. c #7B9DC9",
":. c #7B9ECA",
">. c #7EA0CB",
",. c #7EA0CC",
"<. c #9E9F9E",
"1. c #A5A5A5",
"2. c gray67",
"3. c #AFAFAF",
"4. c #B5B6B5",
"5. c #BABDB6",
"6. c gray73",
"7. c #BCBCBC",
"8. c gray",
"9. c #81A2CC",
"0. c #82A3CE",
"q. c #83A4CD",
"w. c #85A5CD",
"e. c #86A5CC",
"r. c #87A5CC",
"t. c #84A5CF",
"y. c #87A6CE",
"u. c #88A7CF",
"i. c #8AA8CF",
"p. c #86A7D0",
"a. c #8AA9D1",
"s. c #8BAAD2",
"d. c #8CABD1",
"f. c #8DABD2",
"g. c #8EACD3",
"h. c #8FADD3",
"j. c #90AED3",
"k. c #9BB5D8",
"l. c #9CB7D9",
"z. c #C0C0C0",
"x. c #C1C1C1",
"c. c gray76",
"v. c #C3C3C3",
"b. c gray77",
"n. c #C6C6C6",
"m. c #CACACA",
"M. c #CBCBCB",
"N. c gray80",
"B. c #CDCDCD",
"V. c #CECECE",
"C. c gray81",
"Z. c #D0D0D0",
"A. c gray82",
"S. c #D2D2D2",
"D. c #D5D5D5",
"F. c gray84",
"G. c gray85",
"H. c gainsboro",
"J. c #DDDDDD",
"K. c #DFDFDF",
"L. c #E2E2E2",
"P. c #E6E6E6",
"I. c gray91",
"U. c #E9E9E9",
"Y. c #EAEAEA",
"T. c #ECECEA",
"R. c gray93",
"E. c #EEEEEC",
"W. c #EFEFEE",
"Q. c #F1F1F1",
"!. c #F2F2F1",
"~. c gray95",
"^. c #F4F4F4",
"/. c #F6F6F6",
"(. c #F1F5FA",
"). c #F2F5FA",
"_. c #F2F6FA",
"`. c #F9F9F9",
"'. c gray98",
"]. c gray99",
"[. c #FEFEFE",
"{. c white",
"}. c None",
/* pixels */
"}.}.}.}.}.}.}.}.}.}.}.}.}.}.}.}.}.}.}.}.}.}.}.}.",
"}.r y y , , , , , , , , , , , , , , , , r r r }.",
"}.q e.d.1 1 1 1 1 1 1 1 1 1 1 1 1 1 1 1 j.e.q }.",
"}.y u.E < < < < < < < < < < < < < < < < ^ h.q }.",
"}.r u.` {.{.{.{.{.{.{.{.{.{.{.{.{.{.{.{.[ f.y }.",
"}.8 w.~ {.{.{.{.{.{.{.{.{.{.{.{.{.{.{.{.[ f.6 }.",
"}.8 w.' {.{.5.5.5.5.5.5.5.5.5.5.5.5.{.{.[ f.6 }.",
"}.y q.' {.{.{.{.{.{.{.{.{.{.{.{.{.{.{.{.[ d.y }.",
"}.8 q.' {.{.{.{.{.{.{.{.{.{.{.{.{.{.{.{.[ p.6 }.",
"}.y :.^ {.{.5.5.5.5.5.5.5.5.5.5.5.5.{.{.] w.r }.",
"}.r :.~ ).{.{.{.{.{.{.{.{.{.{.{.{.{.{.).' p.8 }.",
"}.8 -.E k.).{.{.{.{.{.{.{.{.{.{.{.{.).l.' ,.r }.",
"}.8 *.E ~ ' } | ..O.#.#.$.#.#.O.O...[ ' ' -.r }.",
"}.r %.R V u & . . . . . . . . . = i j D E -.6 }.",
"}.6 o.K d & <.M.M.M.B.F.L.Y.Q.'.4.& j x E *.8 }.",
"}.y _ D p . B.n.: $ : J.Y.Q.{.R.K.X x x K o.8 }.",
"}.r ) D p + B.n.. J . E.^.'.Y.G.A.X c c K X.q }.",
"}.6 / V p + S.B.. R . E./.P.D.b.x.X M M Z ) r }.",
"}.r Y B p + J.J.. R X E.L.A.z.3.6.+ c c V / q }.",
"}.8 g J h o Y.Y.; . - E.N.7.2.1.8.+ N c N Y 8 }.",
"}.}.6 s z o Q.'.{.Q.Q.R.B.n.x.x.x.o J J R A 6 }.",
"}.}.}.2 6 # X + + + + + + + + + o @ 6 6 6 6   }.",
"}.}.}.}.}.}.}.}.}.}.}.}.}.}.}.}.}.}.}.}.}.}.}.}.",
"}.}.}.}.}.}.}.}.}.}.}.}.}.}.}.}.}.}.}.}.}.}.}.}."
};
