/* XPM */
static char *document_print_xpm[] = {
/* columns rows colors chars-per-pixel */
"24 24 105 2 ",
"   c #50524E",
".  c #555753",
"X  c #565854",
"o  c #565954",
"O  c #575955",
"+  c #575A55",
"@  c #585A55",
"#  c #585A56",
"$  c #595A57",
"%  c #5A5B58",
"&  c #5C5E5B",
"*  c #5D5E5B",
"=  c #5D5F5C",
"-  c #5E5F5C",
";  c #6E706C",
":  c #81827E",
">  c #888A85",
",  c #898B86",
"<  c #8A8C87",
"1  c #8E908A",
"2  c #8E928C",
"3  c #90928D",
"4  c #929491",
"5  c #999A96",
"6  c #999B96",
"7  c #9C9E99",
"8  c #AAACA9",
"9  c #ACADAA",
"0  c #ADAEAC",
"q  c #ADAFAC",
"w  c #AFAFAE",
"e  c #AFB0AE",
"r  c #AFB1AE",
"t  c #B0B1AF",
"y  c #B1B1AF",
"u  c #B1B1B0",
"i  c #B2B3B1",
"p  c #B4B5B2",
"a  c #B4B4B3",
"s  c #B4B4B4",
"d  c #B5B6B5",
"f  c #B6B6B5",
"g  c #B7B7B7",
"h  c #B9BCB5",
"j  c #BABDB6",
"k  c #B9B9B9",
"l  c #BBBBBB",
"z  c #B9BCB8",
"x  c #C6C7C5",
"c  c #C8C9C7",
"v  c #C8C9C8",
"b  c #C9CAC8",
"n  c #C9CAC9",
"m  c #CACBC9",
"M  c #CACCCA",
"N  c #CBCCCB",
"B  c #CDCDCD",
"V  c #CCCECC",
"C  c #CDCECC",
"Z  c #CECECC",
"A  c #CECFCD",
"S  c gray81",
"D  c #D0D1CF",
"F  c #D0D2D0",
"G  c #D1D3D0",
"H  c #D2D4D2",
"J  c #E3E6E1",
"K  c #E6E7E5",
"L  c #E5E8E3",
"P  c #E7E8E5",
"I  c #E7EAE5",
"U  c #E8EAE6",
"Y  c gray91",
"T  c #EAEBE9",
"R  c #EAECE8",
"E  c #ECEEEA",
"W  c #ECEEEB",
"Q  c #ECEDEC",
"!  c #EDEEEC",
"~  c #EDEEED",
"^  c #EEEEEC",
"/  c #EEEFEE",
"(  c #EEF0ED",
")  c #EFF0ED",
"_  c #F0F2EF",
"`  c #F1F2EF",
"'  c #F1F1F1",
"]  c #F1F2F0",
"[  c #F1F2F1",
"{  c #F2F2F1",
"}  c #F3F4F2",
"|  c #F5F6F4",
" . c #F5F6F5",
".. c #F6F6F5",
"X. c #F7F7F6",
"o. c #F7F8F7",
"O. c #F8F8F7",
"+. c #FAFAF9",
"@. c gray98",
"#. c #FBFBFB",
"$. c gray99",
"%. c #FCFDFC",
"&. c #FEFEFE",
"*. c white",
"=. c None",
/* pixels */
"=.=.=.=.=.=.=.=.=.=.=.=.=.=.=.=.=.=.=.=.=.=.=.=.",
"=.=.=.=.=.1 < > > > > > > > > > > < 2 =.=.=.=.=.",
"=.=.=.=.=.> X.*.*.*.*.*.*.*.*.*.*.+.< =.=.=.=.=.",
"=.=.=.=.=.> *.J L I R W ) ) { X.o.*.> =.=.=.=.=.",
"=.=.=.=.=.> *.L 8 q q w t i a d +.*.> =.=.=.=.=.",
"=.=.=.=.=.> *.U R R ) _ } X.o.+.+.*.> =.=.=.=.=.",
"=.=.=.=.=.> *.R w e i i a d d k *.*.> =.=.=.=.=.",
"=.=.=.=.=.> *.W ) ) { X.O.+.$.*.*.*.> =.=.=.=.=.",
"=.=.=.=.=.> *.) i i d d g g k l *.*.> =.=.=.=.=.",
"=.=.=.=.=.> *.{ { X.o.#.*.*.*.*.*.*.> =.=.=.=.=.",
"=.=.=.=.% : { K Y T Q ) { { { { ' ' : @ =.=.=.=.",
"=.=.=.= c ; S c n M B B S S S B S S ; x * =.=.=.",
"=.=.= t 7 > > > > > > > > > > > > > > 6 w = =.=.",
"=.* 4 { ^ P P P P P P K K I K K P P P ^ { 4 = =.",
"=.X n B S D D S D D S D D S F F S D D D B M X =.",
"=.X c q 9 q q q q q q q w 9 q w q q q q w c X =.",
"=.. M e X X X . . . . . . . . . . . . . e M X =.",
"=.. B a X W W W ^ ^ ^ ^ ^ ^ ^ ^ ^ ^ ^ . a B @ =.",
"=.. F j . . . . . . . . . . . . . . . . j H X =.",
"=.X B H H H H H H H H H H H H H H H H H H V $ =.",
"=.  @ X @ @ X @ X @ X @ @ @ X X @ X X X X @ . =.",
"=.=.@ 6 j j j j j j j j j j z j j j j j 2 X =.=.",
"=.=.=.@ . . . . . . . . X . X . X . X X X =.=.=.",
"=.=.=.=.=.=.=.=.=.=.=.=.=.=.=.=.=.=.=.=.=.=.=.=."
};
