/* XPM */
static char *edit_paste_xpm[] = {
/* columns rows colors chars-per-pixel */
"24 24 128 2 ",
"   c #4A2E00",
".  c #4D3000",
"X  c #684100",
"o  c #694100",
"O  c #6A4200",
"+  c #6C4301",
"@  c #6B4403",
"#  c #6C4401",
"$  c #6D4401",
"%  c #6E4502",
"&  c #6E4602",
"*  c #6F4602",
"=  c gray36",
"-  c #5E5E5D",
";  c #5F5F5E",
":  c #625B51",
">  c #625E5A",
",  c #626261",
"<  c #686867",
"1  c #7A7A73",
"2  c #7B7B75",
"3  c #A4690C",
"4  c #A5690C",
"5  c #A4690D",
"6  c #A5690D",
"7  c #A46A0C",
"8  c #A56A0C",
"9  c #A46A0D",
"0  c #A76C0D",
"q  c #A76C0E",
"w  c #A86B0E",
"e  c #A86C0D",
"r  c #A86C0E",
"t  c #AB6F0E",
"y  c #AB6E0F",
"u  c #AB6F0F",
"i  c #AC6E0F",
"p  c #AE7110",
"a  c #AF7111",
"s  c #B37311",
"d  c #B27411",
"f  c #B27412",
"g  c #B67712",
"h  c #B67713",
"j  c #B97914",
"k  c #BD7B15",
"l  c #BD7C15",
"z  c #9F7735",
"x  c #BA7F23",
"c  c #A57A33",
"v  c #A67C39",
"b  c #A07B3C",
"n  c #C07F16",
"m  c #C07E17",
"M  c #C38117",
"N  c #C48118",
"B  c #C68319",
"V  c #C68419",
"C  c #CA861A",
"Z  c #CA861B",
"A  c #CE891B",
"S  c #CE881C",
"D  c #D18B1D",
"F  c #D18C1D",
"G  c #D48D1E",
"H  c #C08424",
"J  c #C58726",
"K  c #C68827",
"L  c #968462",
"P  c #908369",
"I  c #9C8B6C",
"U  c #868A84",
"Y  c #878A84",
"T  c #868A85",
"R  c #8F8F83",
"E  c #888984",
"W  c #898A84",
"Q  c #888A85",
"!  c #898A85",
"~  c #898B85",
"^  c #888887",
"/  c #898B86",
"(  c #8A8B86",
")  c #898D87",
"_  c #8C8D87",
"`  c #8C8D88",
"'  c #8D8D88",
"]  c #909084",
"[  c #9C9584",
"{  c #90908A",
"}  c #97978A",
"|  c #AFAFAF",
" . c #B4B5B4",
".. c #BABAB0",
"X. c #BABAB1",
"o. c #BBBBB1",
"O. c #BBBBB2",
"+. c #BCBCB2",
"@. c #BABBB9",
"#. c #BDBEBB",
"$. c #C5C5C4",
"%. c #C5C5C5",
"&. c #C6C6C5",
"*. c #C7C7C6",
"=. c gray81",
"-. c #E9E9E9",
";. c #EAEAEA",
":. c #EBEBEA",
">. c gray92",
",. c #ECECEB",
"<. c #EDEDEC",
"1. c gray93",
"2. c #EEEEED",
"3. c #EEEEEE",
"4. c #EFEFEE",
"5. c #EFEFEF",
"6. c #F0F0EF",
"7. c gray94",
"8. c #F1F1F1",
"9. c gray95",
"0. c #F4F4F4",
"q. c #F6F6F6",
"w. c gray97",
"e. c gray98",
"r. c #FDFDFD",
"t. c #FEFEFE",
"y. c white",
"u. c None",
/* pixels */
"u.u.u.u.u.u.u.u.u.u.u.u.u.u.u.u.u.u.u.u.u.u.u.u.",
"u.u.u.u.u.u.u.u.u.= = = = = = u.u.u.u.u.u.u.u.u.",
"u.u.u.u.u.u.u.u.= = ] ] ] ] = = u.u.u.u.u.u.u.u.",
"u.u.u.u.O * @ : 2 } } } } } } 2 > O * + u.u.u.u.",
"u.u.u.* H H [ , ' o.o.o.o.o.o.{ , I H H + u.u.u.",
"u.u.u.* J G W | < ; = ; ; ; ; < ^ _ G J O u.u.u.",
"u.u.u.* J G Y y.6.6.6.6.6.6.8.6.y._ D K O u.u.u.",
"u.u.u.* J S ) y.6.*.*.*.*.&.&.6.y._ S J O u.u.u.",
"u.u.u.* J Z W y.6.6.1.6.1.1.1.1.y.) C J O u.u.u.",
"u.u.u.* J B W y.6.&.&.&.&.&.&.1.y._ B J O u.u.u.",
"u.u.u.* J N W y.6.6.6.1.1.1.1.1.y.) N J O u.u.u.",
"u.u.u.* K l W y.6.&.&.&.&.&.&.1.y.' l J O u.u.u.",
"u.u.u.* J k W y.1.;.-.7.1.8.0.8.#.W l J O u.u.u.",
"u.u.u.* J j / y.;.%.%.7.W W Y Y W Y j J O u.u.u.",
"u.u.u.* J h W e.1.-.7.7.Y =.=.@.W v h J O u.u.u.",
"u.u.u.* J f ) w.-.-.0.0.) =. .W c f f J O u.u.u.",
"u.u.u.* J p W 8.8.8.8.w.Y @.Y z a a u J O u.u.u.",
"u.u.u.* J u L W W W W Y Y P z u p a u J O u.u.u.",
"u.u.u.* J r r q q q e 8 q q q q q q q J O u.u.u.",
"u.u.u.* J 9 9 9 3 3 8 3 3 3 3 3 5 3 q J O u.u.u.",
"u.u.u.O x x x x x x x x x x x x x x x x O u.u.u.",
"u.u.u.. O + O * O * @ * * @ O * * @ O O   u.u.u.",
"u.u.u.u.u.u.u.u.u.u.u.u.u.u.u.u.u.u.u.u.u.u.u.u.",
"u.u.u.u.u.u.u.u.u.u.u.u.u.u.u.u.u.u.u.u.u.u.u.u."
};
