/* XPM */
static char *edit_undo_rtl_xpm[] = {
/* columns rows colors chars-per-pixel */
"24 24 114 2 ",
"   c #B89801",
".  c #BC9A00",
"X  c #BD9C00",
"o  c #BE9D00",
"O  c #C39F00",
"+  c #C3A001",
"@  c #C4A100",
"#  c #C5A100",
"$  c #C5A001",
"%  c #C6A100",
"&  c #C5A200",
"*  c #C5A201",
"=  c #C6A200",
"-  c #C7A200",
";  c #C6A300",
":  c #C7A300",
">  c #C6A301",
",  c #C6A302",
"<  c #C6A400",
"1  c #C7A400",
"2  c #C7A500",
"3  c #C9A805",
"4  c #CAA709",
"5  c #C9A70D",
"6  c #CAA70C",
"7  c #CEAE0A",
"8  c #CAAA0E",
"9  c #CFAF0D",
"0  c #CEAD0E",
"q  c #CFB900",
"w  c #CEB801",
"e  c #D4BD00",
"r  c #D5BE05",
"t  c #D1BB09",
"y  c #D1BD08",
"u  c #D1BC09",
"i  c #CFB01B",
"p  c #D1B412",
"a  c #D1B316",
"s  c #DABF15",
"d  c #D3B625",
"f  c #D8BB26",
"g  c #D8BE27",
"h  c #D6BC2B",
"j  c #D6BC33",
"k  c #DBC400",
"l  c #DCC500",
"z  c #DDC600",
"x  c #DEC808",
"c  c #DDC911",
"v  c #E1C900",
"b  c #E7CF00",
"n  c #ECD300",
"m  c #EDD400",
"M  c #EDD401",
"N  c #EDD503",
"B  c #EDD506",
"V  c #EBD40C",
"C  c #EED60C",
"Z  c #EED60D",
"A  c #ECD614",
"S  c #EFD81A",
"D  c #DEC527",
"F  c #DCC128",
"G  c #DCC528",
"H  c #DCC42F",
"J  c #DFC630",
"K  c #DECC35",
"L  c #DAC438",
"P  c #DFC63C",
"I  c #DCC63E",
"U  c #E1C825",
"Y  c #EFDA21",
"T  c #F0DB2A",
"R  c #F0DC2F",
"E  c #E1C832",
"W  c #EDD730",
"Q  c #EAD335",
"!  c #EAD83C",
"~  c #F0DB31",
"^  c #D8C341",
"/  c #E5CE43",
"(  c #E2D143",
")  c #EAD544",
"_  c #F1DF40",
"`  c #F2DF41",
"'  c #F2DF43",
"]  c #F1DF46",
"[  c #E0D256",
"{  c #E5D554",
"}  c #E9D556",
"|  c #E8D953",
" . c #EDDC52",
".. c #E5D75E",
"X. c #E9D659",
"o. c #E9D75C",
"O. c #EFDE5B",
"+. c #EAD85F",
"@. c #ECDC5F",
"#. c #F2E14C",
"$. c #F3E150",
"%. c #F3E358",
"&. c #F4E45E",
"*. c #E5D763",
"=. c #E7D864",
"-. c #EEDD67",
";. c #ECDF6F",
":. c #F3E46A",
">. c #F3E472",
",. c #F2E478",
"<. c #F5E97D",
"1. c #F6EA81",
"2. c #F7EB8A",
"3. c None",
/* pixels */
"3.3.3.3.3.3.3.3.3.3.3.3.3.3.3.3.3.3.3.3.3.3.3.3.",
"3.3.3.3.3.3.3.3.3.3.3.3.3.3.3.3.3.3.3.3.3.3.3.3.",
"3.3.3.3.3.3.3.3.3.3.3.3.3.3.3.3.3.3.3.3.3.3.3.3.",
"3.3.3.3.3.3.3.3.3.3.3.3.3.# # 3.3.3.3.3.3.3.3.3.",
"3.3.3.3.3.3.3.3.3.3.3.3.3.O 9 # 3.3.3.3.3.3.3.3.",
"3.3.3.3.3.3.3.3.3.3.3.3.3.3.E =.# 3.3.3.3.3.3.3.",
"3.3.3.3.3.3.3.3.3.3.+ , : # E 2.+.1 3.3.3.3.3.3.",
"3.3.3.3.3.3.3.3.: 8 E -.,.<.1.#.&.X.# 3.3.3.3.3.",
"3.3.3.3.3.3.3.# d >.#.Y Z B M M B %.} # 3.3.3.3.",
"3.3.3.3.3.3.3.i :.S M M M b v l x v ;.j # 3.3.3.",
"3.3.3.3.3.3.1 / ~ M l e e w t t y [ ^ 1 3.3.3.3.",
"3.3.3.3.3.3.# O.Z k r K ..=.*.( { L # 3.3.3.3.3.",
"3.3.3.3.3.3.1  .Z c | I 8 + h @.H # 3.3.3.3.3.3.",
"3.3.3.3.3.3.: ) A ! G 1 3.3.g G : 3.3.3.3.3.3.3.",
"3.3.3.3.3.3.: F T ] 4 3.3.3.3 # 3.3.3.3.3.3.3.3.",
"3.3.3.3.3.3.3.8 ! ' 9 3.3.3.# 3.3.3.3.3.3.3.3.3.",
"3.3.3.3.3.3.3.1 U #.f 3.3.3.3.3.3.3.3.3.3.3.3.3.",
"3.3.3.3.3.3.3.3.# W Q # 3.3.3.3.3.3.3.3.3.3.3.3.",
"3.3.3.3.3.3.3.3.o 7 ~ p 3.3.3.3.3.3.3.3.3.3.3.3.",
"3.3.3.3.3.3.3.3.3.. a s o 3.3.3.3.3.3.3.3.3.3.3.",
"3.3.3.3.3.3.3.3.3.3.  # 3.3.3.3.3.3.3.3.3.3.3.3.",
"3.3.3.3.3.3.3.3.3.3.3.3.3.3.3.3.3.3.3.3.3.3.3.3.",
"3.3.3.3.3.3.3.3.3.3.3.3.3.3.3.3.3.3.3.3.3.3.3.3.",
"3.3.3.3.3.3.3.3.3.3.3.3.3.3.3.3.3.3.3.3.3.3.3.3."
};
