/* XPM */
static char *edit_find_replace_xpm[] = {
/* columns rows colors chars-per-pixel */
"24 24 246 2 ",
"   c #3E413E",
".  c #4F432E",
"X  c #755725",
"o  c #555753",
"O  c #565754",
"+  c #5D5E5A",
"@  c #5D5F5B",
"#  c #786649",
"$  c #7E6C4C",
"%  c #616360",
"&  c #616361",
"*  c #626361",
"=  c #636461",
"-  c #626462",
";  c #646561",
":  c #646562",
">  c #686966",
",  c #686A67",
"<  c #6A6B69",
"1  c #6C6D6A",
"2  c #6C6D6B",
"3  c #6D6E6C",
"4  c #6D706E",
"5  c #6E706E",
"6  c #6F716E",
"7  c #6E706F",
"8  c #6F716F",
"9  c #71726F",
"0  c #A60300",
"q  c #A40C01",
"w  c #A70C05",
"e  c #A21402",
"r  c #AD130A",
"t  c #AC1614",
"y  c #9C2201",
"u  c #9C2601",
"i  c #9C2801",
"p  c #B92D2A",
"a  c #BC392C",
"s  c #C61F1F",
"d  c #975108",
"f  c #98630E",
"g  c #99640F",
"h  c #986410",
"j  c #996511",
"k  c #866939",
"l  c #A47427",
"z  c #A47428",
"x  c #A97732",
"c  c #8A7A5A",
"v  c #D45351",
"b  c #C47E68",
"n  c #E97C7C",
"m  c #D89838",
"M  c #DF9F3F",
"N  c #AF8544",
"B  c #AF8644",
"V  c #B08645",
"C  c #B18847",
"Z  c #E2A343",
"A  c #E5A647",
"S  c #E8A949",
"D  c #EAAB4D",
"F  c #FCB955",
"G  c #FCB956",
"H  c #FCBA58",
"J  c #FCBA59",
"K  c #FCBC5C",
"L  c #C28C72",
"P  c #F6B86F",
"I  c #FDC573",
"U  c #828380",
"Y  c #838581",
"T  c #828482",
"R  c #848681",
"E  c #848582",
"W  c #848684",
"Q  c #868784",
"!  c #878885",
"~  c #888A84",
"^  c #888A85",
"/  c #898B86",
"(  c #8A8C88",
")  c #8C8E89",
"_  c #8D8E8A",
"`  c #8D8F8A",
"'  c #8F908C",
"]  c #8F918C",
"[  c #939490",
"{  c #9A9C98",
"}  c #9C9E9A",
"|  c #9C9E9B",
" . c #9FA19D",
".. c #A2A4A0",
"X. c #A3A4A1",
"o. c #A6A7A4",
"O. c #A6A7A5",
"+. c #B7B9B6",
"@. c #B8B8B7",
"#. c #BBBBBA",
"$. c #D0BE9D",
"%. c #EFC586",
"&. c #EDC58B",
"*. c #F0C687",
"=. c #F0C788",
"-. c #F1C889",
";. c #F3CC91",
":. c #D2C2A4",
">. c #D6C6AA",
",. c #D9CAAF",
"<. c #DBCDB5",
"1. c #DCCEB5",
"2. c #DECEB5",
"3. c #D7CDBB",
"4. c #DFD2BB",
"5. c #D9D0BD",
"6. c #DFD3BE",
"7. c #BCC6CC",
"8. c #BEC7CC",
"9. c #C3C4C1",
"0. c #C7C8C5",
"q. c #C7CAC7",
"w. c #C8CAC7",
"e. c #C4CACD",
"r. c #C5CBCF",
"t. c #CACBC9",
"y. c #CBCDCA",
"u. c #CCCDCB",
"i. c #CDCECB",
"p. c #CDCECD",
"a. c #CED0CD",
"s. c #CDD0CF",
"d. c #CDD1D2",
"f. c #D0D1D0",
"g. c #D2D3D1",
"h. c #D3D4D3",
"j. c #D4D5D4",
"k. c gray84",
"l. c #D7D8D6",
"z. c #D8D8D8",
"x. c #DADADA",
"c. c #E4D9C6",
"v. c #E9DFCF",
"b. c #E0E1DE",
"n. c #E1E2DF",
"m. c #D0DEEB",
"M. c #D2DFEB",
"N. c #D2DFEC",
"B. c #D5E0EB",
"V. c #D6E1EB",
"C. c #D6E1ED",
"Z. c #D6E2EE",
"A. c #D6E3EE",
"S. c #DAE3E9",
"D. c #DCE3E9",
"F. c #DAE4EB",
"G. c #DEE5E9",
"H. c #DBE5ED",
"J. c #D8E4EF",
"K. c #DAE5EE",
"L. c #DAE5EF",
"P. c #DEE6EC",
"I. c #DFE7ED",
"U. c #DFE8F0",
"Y. c #E1E3E0",
"T. c #E6E6E4",
"R. c #E0E7EE",
"E. c #E4EBEE",
"W. c #EAECE8",
"Q. c #EBECE9",
"!. c #EBEDE9",
"~. c #ECEDEA",
"^. c #ECECEB",
"/. c #ECEEEA",
"(. c #ECEEEB",
"). c #EDEEEB",
"_. c #EDEFEB",
"`. c #E9EDEF",
"'. c gray93",
"]. c #EDEEEC",
"[. c #EDEFEC",
"{. c #EEEFEC",
"}. c #EEEFEE",
"|. c #EEF0ED",
" X c #EFF0ED",
".X c #EFF1EE",
"XX c #F0F1EE",
"oX c #F0F0EF",
"OX c #F0F1EF",
"+X c #F0F2EF",
"@X c #F1F2EF",
"#X c #F6F3EE",
"$X c #F7F4EF",
"%X c #E0E9F1",
"&X c #E3EBF0",
"*X c #E4EBF3",
"=X c #E5ECF0",
"-X c #E5ECF2",
";X c #EBEEF0",
":X c #EAEFF1",
">X c #EBEFF3",
",X c #EDEFF0",
"<X c #EBF0F2",
"1X c #EFF0F0",
"2X c #EFF2F1",
"3X c #EFF1F3",
"4X c #EBF1F5",
"5X c #EBF0F6",
"6X c #F1F1F1",
"7X c #F1F2F0",
"8X c #F1F3F0",
"9X c #F2F3F1",
"0X c gray95",
"qX c #F3F3F2",
"wX c #F3F4F2",
"eX c #F4F5F3",
"rX c #F2F4F5",
"tX c #F4F4F4",
"yX c #F4F5F4",
"uX c #F5F5F4",
"iX c gray96",
"pX c #F5F6F5",
"aX c #F6F7F5",
"sX c #F7F7F6",
"dX c #F7F8F7",
"fX c #F8F9F7",
"gX c #FBF9F6",
"hX c #F8F8F8",
"jX c #F8F9F8",
"kX c #F9F9F8",
"lX c #F9FAF9",
"zX c #FAFAF9",
"xX c gray98",
"cX c #FAFBFA",
"vX c #FBFBFA",
"bX c #FBFBFB",
"nX c #FBFCFB",
"mX c #FCFCFB",
"MX c gray99",
"NX c #FCFDFC",
"BX c #FDFDFC",
"VX c #FDFDFD",
"CX c #FDFEFD",
"ZX c #FEFEFE",
"AX c white",
"SX c None",
/* pixels */
"SXSXSX] ^ ^ ^ ^ ^ ^ ^ ^ ^ ^ ^ ^ _ SXSXSXSXSXSXSX",
"SXSX] 0.xXAXAXAXAXAXAXAXAXAXAX(.O.( SXSXSXSXSXSX",
"SXSX^ xXxX7X7X@X.X.X(.(.(.W.W.T.x..._ SXSXSXSXSX",
"SXSX^ AXeXeX7X@X@X.X.X(.(.(.(.k.pXz. ._ SXSXSXSX",
"SXSX^ AXpXpXeXy.R % & T w.(.(.y.AX7Xk.| SXSXSXSX",
"SXSX^ AXpXpXo.9 g./.:Xd.9 ..{.9.AXAX7Xk.{ SXSXSX",
"SXSX^ AXfXa.9 pXdX2X4X4XJ., w.@.{ [ ( ^ ^ _ SXSX",
"SXSX^ AXxXQ j.fX4X:X%X%XJ.7.L @Xn.n.n.n.7X^ SXSX",
"SXSX^ AXbX: 1XrX4XE.U.F.V.F.% +X@X.X(.(.b w e SX",
"SXSX^ AXMX: ,X4X=XU.J.B.B.S.; +X7X.X@XL t n p y ",
"SXSX^ AXAXQ d.4XU.U.A.m.A.8.Y wX7XwX$.x a v s q ",
"SXSX^ AXAXh.8 4X=XJ.m.A.H.4 a.eXeX:.C ;.P r 0 i ",
"SXSX^ AXpX@.+ 2 r.P.S.7.4 O.fXdX>.B -.G D d u SX",
"SXSX^ 7X2 o #.h.W & ; E d.fXfX,.B -.G S g c SXSX",
"SXSXE 2 o 2 dXAXAXAXBXxXxXxX1.B %.G A g 2.^ SXSX",
"SXSX+ O < }.AXAXAXAXAXAXBX4.B %.H Z h <.AX^ SXSX",
"SXO o > }.AXAXAXAXAXAXAXAXl &.K M h 6.dXAX~ SXSX",
"SXSX> }.AXAXAXAXAXAXAXAX5.k I m h c.xXxXAXQ SXSX",
"SXSX^ AXAXAXAXAXAXAXAXAX$   X l v.xXxXxXAX~ SXSX",
"SXSX^ AXAXAXAXAXAXAXAXfX. # 3.AXAXAXBXxXAX~ SXSX",
"SXSX^ AXAXAXAXAXAXAXAX$X#XAXAXAXAXAXnXAXAX! SXSX",
"SXSX_ y.AXAXAXAXAXAXAXAXAXAXAXAXAXAXAXAXt._ SXSX",
"SXSXSX_ ^ ^ ! ^ ^ ^ ^ ^ ^ ^ ^ ^ ! ! ^ ^ _ SXSXSX",
"SXSXSXSXSXSXSXSXSXSXSXSXSXSXSXSXSXSXSXSXSXSXSXSX"
};
