/* XPM */
static char *edit_find_xpm[] = {
/* columns rows colors chars-per-pixel */
"24 24 135 2 ",
"   c #2C3234",
".  c #2E3435",
"X  c #2F3436",
"o  c #303537",
"O  c #303738",
"+  c #343A3C",
"@  c #363C3D",
"#  c #373C3E",
"$  c #363D3E",
"%  c #373D3E",
"&  c #373E3F",
"*  c #3C4141",
"=  c #3B4753",
"-  c #3B4957",
";  c #4D545A",
":  c #535754",
">  c #575A57",
",  c #52585D",
"<  c #585B58",
"1  c #56606A",
"2  c #5F696F",
"3  c #5C6873",
"4  c #6F7275",
"5  c #777A7E",
"6  c #797C78",
"7  c #61778B",
"8  c #61778D",
"9  c #7F8182",
"0  c #72818F",
"q  c #768CA3",
"w  c #878985",
"e  c #878A84",
"r  c #888985",
"t  c #888A84",
"y  c #898A84",
"u  c #888A85",
"i  c #888B85",
"p  c #888A86",
"a  c #898C87",
"s  c #8A8C87",
"d  c #8C8E89",
"f  c #8E928E",
"g  c #878C91",
"h  c #8F9290",
"j  c #969793",
"k  c #959697",
"l  c #969892",
"z  c #969994",
"x  c #989A94",
"c  c #9EA09C",
"v  c #9FA19D",
"b  c #A0A29C",
"n  c #8D9FB2",
"m  c #A0A4A1",
"M  c #A2A4A0",
"N  c #A4A5A1",
"B  c #A7AAA6",
"V  c #AAABAD",
"C  c #AFB0AF",
"Z  c #A8AFB4",
"A  c #AFB3B0",
"S  c #B2B5B7",
"D  c #B4B7B4",
"F  c #BCBEBB",
"G  c #BFC0BC",
"H  c #99AFC3",
"J  c #9DB1C5",
"K  c #9FBACE",
"L  c #9BB6D0",
"P  c #9EBAD1",
"I  c #A8B6C2",
"U  c #A0B9CF",
"Y  c #A1BAD0",
"T  c #A6BED3",
"R  c #B7C3CC",
"E  c #BBC8D2",
"W  c #BDCCD7",
"Q  c #B5C9DC",
"!  c #B7CBDF",
"~  c #C6C7C6",
"^  c #CCCDCD",
"/  c #C1CFDF",
"(  c #CCD0D3",
")  c #D1D1D0",
"_  c #D3D3D0",
"`  c #D2D2D1",
"'  c #D1D4D2",
"]  c #D4D4D2",
"[  c #D5D6D3",
"{  c #D4D5D4",
"}  c #D7D8D5",
"|  c #D8D9D8",
" . c #D9D9D8",
".. c #D9DAD8",
"X. c #DADBD9",
"o. c #DBDBD9",
"O. c #DDDEDC",
"+. c #DEDEDD",
"@. c #E0E0DF",
"#. c #E1E1DF",
"$. c #C8D5E1",
"%. c #CEDBE8",
"&. c #D3DEE9",
"*. c #E4E4E1",
"=. c #E4E4E2",
"-. c #E4E4E3",
";. c #E5E5E3",
":. c #E6E6E5",
">. c #E7E7E6",
",. c #E8E8E6",
"<. c #E9E9E8",
"1. c #E8E8E9",
"2. c #E9E9E9",
"3. c #EAEBE9",
"4. c #EBEBE9",
"5. c #E9E9EA",
"6. c #EAEBEA",
"7. c #EBEBEA",
"8. c #EAEBEB",
"9. c #ECECEA",
"0. c #EFEFEF",
"q. c #E2EAF1",
"w. c #E3EBF2",
"e. c #EFEFF0",
"r. c #E8EEF5",
"t. c #EBF1F6",
"y. c #EDF2F7",
"u. c #EFF4F8",
"i. c #F1F1F1",
"p. c gray95",
"a. c #F3F3F2",
"s. c #F4F4F3",
"d. c #F6F8FB",
"f. c #F8FAFC",
"g. c None",
/* pixels */
"g.g.g.g.g.g.g.g.g.g.g.g.g.g.g.g.g.g.g.g.g.g.g.g.",
"g.g.g.g.g.g.g.g.g.g.g.g.g.g.g.g.g.g.g.g.g.g.g.g.",
"g.g.g.g.g.g.t t t w g.g.g.g.g.g.g.g.g.g.g.g.g.g.",
"g.g.g.g.a +.8.s.s.1...a g.g.g.g.g.g.g.g.g.g.g.g.",
"g.g.g.M e.^ 5 1 3 g | 8.v g.g.g.g.g.g.g.g.g.g.g.",
"g.g.a 0.k - 8 H $.J 8 S 5.a g.g.g.g.g.g.g.g.g.g.",
"g.w +.) = n f.d.t.r.! q o.] g.g.g.g.g.g.g.g.g.g.",
"g.t 5.4 0 y.t.w.%.Q L L A :.t g.g.g.g.g.g.g.g.g.",
"g.t p.; R w.&.T K P U Y I 9.t g.g.g.g.g.g.g.g.g.",
"g.t p., W $.g.g.g.g.g.g.E 5.t g.g.g.g.g.g.g.g.g.",
"g.t ,.9 g.g.g.g.g.g.g.g.( =.t g.g.g.g.g.g.g.g.g.",
"g.g.o.) 2 g.g.g.g.g.g.g.@.] g.g.g.g.g.g.g.g.g.g.",
"g.g.a 5.C g.g.g.g.g.g...:.a g.g.g.g.g.g.g.g.g.g.",
"g.g.g.N 5.{ V g.g.( *.,.v z g.g.g.g.g.g.g.g.g.g.",
"g.g.g.g.d } =.9.9.=.] d j ~ * % g.g.g.g.g.g.g.g.",
"g.g.g.g.g.g.t a a t g.g.g.% M A % g.g.g.g.g.g.g.",
"g.g.g.g.g.g.g.g.g.g.g.g.g.O j F F % g.g.g.g.g.g.",
"g.g.g.g.g.g.g.g.g.g.g.g.g.g.o > v D % g.g.g.g.g.",
"g.g.g.g.g.g.g.g.g.g.g.g.g.g.g.O > x B % g.g.g.g.",
"g.g.g.g.g.g.g.g.g.g.g.g.g.g.g.g.X < z f % g.g.g.",
"g.g.g.g.g.g.g.g.g.g.g.g.g.g.g.g.g.X : 6 + g.g.g.",
"g.g.g.g.g.g.g.g.g.g.g.g.g.g.g.g.g.g.  X g.g.g.g.",
"g.g.g.g.g.g.g.g.g.g.g.g.g.g.g.g.g.g.g.g.g.g.g.g.",
"g.g.g.g.g.g.g.g.g.g.g.g.g.g.g.g.g.g.g.g.g.g.g.g."
};
