/* XPM */
static char *edit_cut_xpm[] = {
/* columns rows colors chars-per-pixel */
"24 24 55 1 ",
"  c #714601",
". c #754801",
"X c #784B01",
"o c #7A4C01",
"O c #7D4D01",
"+ c #7F4F01",
"@ c #815001",
"# c #8E5801",
"$ c #8F5902",
"% c #AD6E0B",
"& c #B9770E",
"* c #A57A34",
"= c #C17D11",
"- c #B7945C",
"; c #CD9740",
": c #D7AB66",
"> c #888A85",
", c #8A8C87",
"< c #8B8D88",
"1 c #8C8E89",
"2 c #90928D",
"3 c #949691",
"4 c #959792",
"5 c #989A95",
"6 c #999B96",
"7 c #9B9D98",
"8 c #A1A39E",
"9 c #A2A49F",
"0 c #A6A8A3",
"q c #A7A8A5",
"w c #B0B2AE",
"e c #B1B2AF",
"r c #B3B3B0",
"t c #B3B3B1",
"y c #B7B7B4",
"u c #B6B8B4",
"i c #BCBCBA",
"p c #BFBFBD",
"a c #DFBC84",
"s c #BEC0BC",
"d c #BFC0BD",
"f c #C5C7C3",
"g c #C9CAC7",
"h c #CCCCCA",
"j c #CFD0CD",
"k c #D6D6D4",
"l c #DDDDDB",
"z c #E3E3E1",
"x c #E4E4E2",
"c c #E5E5E3",
"v c #EAEAE8",
"b c #ECECEA",
"n c #EEEEEC",
"m c #F7F8F7",
"M c None",
/* pixels */
"MMMMMMMMMMMMMMMMMMMMMMMM",
"MMMMMM>5MMMMMMM54MMMMMMM",
"MMMMM>n<MMMMMMM4k>MMMMMM",
"MMMMM>blMMMMMMM9l>MMMMMM",
"MMMMM>nx<MMMMM4lx>MMMMMM",
"MMMMM>gbiMMMMMexx2MMMMMM",
"MMMMMMqbv1MMM4lxyMMMMMMM",
"MMMMMM>hbs,M,qxz5MMMMMMM",
"MMMMMMMqnx<M4lbrMMMMMMMM",
"MMMMMMM>lnj4fnx5MMMMMMMM",
"MMMMMMMMulxsncrMMMMMMMMM",
"MMMMMMMM>ldejx8MMMMMMMMM",
"MMMMMMMMMx7mucMMMMMMMMMM",
"MMMMMMMMM4j9j>MMMMMMMMMM",
"MMMM$$$$$$wje$$$$$$MMMMM",
"MMM$$a:;;=$w$=;;::$$MMMM",
"MMM$:*$$=&$e$%=$$$=$MMMM",
"MMM$:$M$=$$M$$=$M$=$MMMM",
"MMM$;$M$=$MMM$=$M$;$MMMM",
"MMM$=$$=%+MMMO%=$-=$MMMM",
"MMM@$==%.MMMMM %==$XMMMM",
"MMMM+$$$MMMMMMM$$$oMMMMM",
"MMMMMMMMMMMMMMMMMMMMMMMM",
"MMMMMMMMMMMMMMMMMMMMMMMM"
};
