/* XPM */
static char *edit_copy_xpm[] = {
/* columns rows colors chars-per-pixel */
"24 24 48 1 ",
"  c #7E807C",
". c #858782",
"X c #868783",
"o c #868A84",
"O c #878A84",
"+ c #868A85",
"@ c #888A85",
"# c #898B86",
"$ c #898D87",
"% c #8A8C87",
"& c #8C8E89",
"* c #8C8E8A",
"= c #8D8F8A",
"- c #979995",
"; c #A3A5A1",
": c #B4B5B4",
"> c #BABBB9",
", c #BDBEBB",
"< c #C5C5C4",
"1 c #C5C5C5",
"2 c #C6C6C5",
"3 c #C7C7C6",
"4 c gray81",
"5 c #E9E9E9",
"6 c #EAEAEA",
"7 c #EBEBEA",
"8 c gray92",
"9 c #ECECEB",
"0 c #ECECEC",
"q c #EDEDEC",
"w c gray93",
"e c #EEEEED",
"r c #EEEEEE",
"t c #EFEFEE",
"y c #EFEFEF",
"u c #F0F0EF",
"i c gray94",
"p c #F1F1F1",
"a c gray95",
"s c #F3F3F3",
"d c #F4F4F4",
"f c #F6F6F6",
"g c gray97",
"h c gray98",
"j c #FDFDFD",
"k c #FEFEFE",
"l c white",
"z c None",
/* pixels */
"zzzzzzzzzzzzzzzzzzzzzzzz",
"zz-&&%&&&&&%&&&&&zzzzzzz",
"zz#lllllllllllll&zzzzzzz",
"zz#luttuuutttutl&zzzzzzz",
"zz%lu333333333tl&zzzzzzz",
"zz#luttt;&&%%&=%&%&&&&&z",
"zz%lu333#lllllllllllll&z",
"zz#luuuu#luttuituttutl&z",
"zz#lt3<3%lu333333333tl&z",
"zzOl8666#lutttttt0t0tj&z",
"zz#l8333%lu3333331110l%z",
"zz#h66yi#luuuuttt00ttj&z",
"zz#g66ti#ly<33<<1113tl&z",
"zz%iiiii#l88668yiyiay,#z",
"zzO####O#l83333atOO#O##z",
"zzzzzzzz#h65tiiaiO44>Ozz",
"zzzzzzzz#g66uiiggO4:Ozzz",
"zzzzzzzz%iiiiiiggO>#zzzz",
"zzzzzzzz.###%###OO zzzzz",
"zzzzzzzzzzzzzzzzzzzzzzzz",
"zzzzzzzzzzzzzzzzzzzzzzzz",
"zzzzzzzzzzzzzzzzzzzzzzzz",
"zzzzzzzzzzzzzzzzzzzzzzzz",
"zzzzzzzzzzzzzzzzzzzzzzzz"
};
