/* XPM */
static char *edit_undo_ltr_xpm[] = {
/* columns rows colors chars-per-pixel */
"24 24 111 2 ",
"   c #B29200",
".  c #C39F00",
"X  c #C3A102",
"o  c #C4A000",
"O  c #C4A100",
"+  c #C5A100",
"@  c #C5A001",
"#  c #C4A101",
"$  c #C6A100",
"%  c #C5A200",
"&  c #C6A200",
"*  c #C6A300",
"=  c #C7A300",
"-  c #C7A301",
";  c #C6A302",
":  c #C7A303",
">  c #C7A500",
",  c #C6A404",
"<  c #C7A405",
"1  c #C5A406",
"2  c #CAA809",
"3  c #C9A80A",
"4  c #CAAA0A",
"5  c #C8A80D",
"6  c #C9A80F",
"7  c #CFBA00",
"8  c #D0BB00",
"9  c #D4BD00",
"0  c #D0BA07",
"q  c #C9A812",
"w  c #CBAA13",
"e  c #CCAC10",
"r  c #CAA815",
"t  c #CAAA1A",
"y  c #CDAC1F",
"u  c #CFB118",
"i  c #CEB119",
"p  c #CFB11C",
"a  c #CFB11D",
"s  c #D3BE13",
"d  c #D3B520",
"f  c #D3B627",
"g  c #D9BD29",
"h  c #D7C000",
"j  c #DCC500",
"k  c #DDC600",
"l  c #DEC700",
"z  c #D4C019",
"x  c #DEC119",
"c  c #E1C900",
"v  c #E4CC00",
"b  c #E6CE00",
"n  c #E7CE00",
"m  c #EAD200",
"M  c #EDD400",
"N  c #EDD401",
"B  c #EDD402",
"V  c #EED508",
"C  c #EED710",
"Z  c #E8D217",
"A  c #DBC722",
"S  c #DAC12F",
"D  c #D8C72C",
"F  c #DECB29",
"G  c #E4CB24",
"H  c #E7CF24",
"J  c #E7CF28",
"K  c #E2C92C",
"L  c #E5CD2D",
"P  c #EFDA26",
"I  c #F0DA26",
"U  c #F0DC2E",
"Y  c #E5CE34",
"T  c #E5D33F",
"R  c #EBD63E",
"E  c #F1DD34",
"W  c #F1DD36",
"Q  c #F1DE39",
"!  c #F1DE3B",
"~  c #F1DE3C",
"^  c #F1DE3F",
"/  c #E6D543",
"(  c #E5D44F",
")  c #EBD74B",
"_  c #EBD949",
"`  c #F1DF49",
"'  c #E3D452",
"]  c #E8D753",
"[  c #E9D654",
"{  c #E9D655",
"}  c #E3D55B",
"|  c #E4D55A",
" . c #E5D65B",
".. c #EADA5B",
"X. c #EBD95C",
"o. c #F2E048",
"O. c #E3D362",
"+. c #E6D862",
"@. c #E8D864",
"#. c #F4E460",
"$. c #F4E461",
"%. c #F3E472",
"&. c #F1E274",
"*. c #F3E575",
"=. c #F3E678",
"-. c #F4E67A",
";. c #F6E97F",
":. c #F4E781",
">. c #F6EA80",
",. c #F6EA81",
"<. c None",
/* pixels */
"<.<.<.<.<.<.<.<.<.<.<.<.<.<.<.<.<.<.<.<.<.<.<.<.",
"<.<.<.<.<.<.<.<.<.<.<.<.<.<.<.<.<.<.<.<.<.<.<.<.",
"<.<.<.<.<.<.<.<.<.<.<.. <.<.<.<.<.<.<.<.<.<.<.<.",
"<.<.<.<.<.<.<.<.<.<.O O <.<.<.<.<.<.<.<.<.<.<.<.",
"<.<.<.<.<.<.<.<.<.O e O <.<.<.<.<.<.<.<.<.<.<.<.",
"<.<.<.<.<.<.<.<.O a *.= <.<.<.<.<.<.<.<.<.<.<.<.",
"<.<.<.<.<.<.<.O a :.>.= O O > <.<.<.<.<.<.<.<.<.",
"<.<.<.<.<.<.O p -.U >.>.-.&.[ f O <.<.<.<.<.<.<.",
"<.<.<.<.<.O a %.I M M M V C W $.X.< <.<.<.<.<.<.",
"<.<.<.<.<.. @./ j j j v m M M M o.[ > <.<.<.<.<.",
"<.<.<.<.<.<.w O.D 8 z s 0 8 h n M $.w <.<.<.<.<.",
"<.<.<.<.<.<.<.5 | F ' | +. .A 9 v ~ S <.<.<.<.<.",
"<.<.<.<.<.<.<.<.5 ] X.t O i ' R c W g <.<.<.<.<.",
"<.<.<.<.<.<.<.<.<.4 ) y <.<.O _ Z ! d <.<.<.<.<.",
"<.<.<.<.<.<.<.<.<.<.2 r <.<.O K I ` < <.<.<.<.<.",
"<.<.<.<.<.<.<.<.<.<.<.O <.<.= L ~ Y = <.<.<.<.<.",
"<.<.<.<.<.<.<.<.<.<.<.<.<.<.= / ^ 2 <.<.<.<.<.<.",
"<.<.<.<.<.<.<.<.<.<.<.<.<.<.i ! x = <.<.<.<.<.<.",
"<.<.<.<.<.<.<.<.<.<.<.<.<.O J H = <.<.<.<.<.<.<.",
"<.<.<.<.<.<.<.<.<.<.<.<.<.O G < <.<.<.<.<.<.<.<.",
"<.<.<.<.<.<.<.<.<.<.<.<.<.  O <.<.<.<.<.<.<.<.<.",
"<.<.<.<.<.<.<.<.<.<.<.<.<.<.<.<.<.<.<.<.<.<.<.<.",
"<.<.<.<.<.<.<.<.<.<.<.<.<.<.<.<.<.<.<.<.<.<.<.<.",
"<.<.<.<.<.<.<.<.<.<.<.<.<.<.<.<.<.<.<.<.<.<.<.<."
};
