/* XPM */
static char *format_justify_right_xpm[] = {
/* columns rows colors chars-per-pixel */
"24 24 19 1 ",
"  c #898B86",
". c #8A8C87",
"X c #8F918C",
"o c #92948F",
"O c #939590",
"+ c #959692",
"@ c #979994",
"# c gray73",
"$ c #CECFCE",
"% c #D0D0D0",
"& c #D3D4D3",
"* c #D5D5D4",
"= c #DCDDDC",
"- c #EBECEA",
"; c #ECEDEC",
": c #EDEDEC",
"> c #F4F5F3",
", c #FEFEFE",
"< c None",
/* pixels */
"<<<XoOOOOOOOOOOOOOOoX<<<",
"<<X:,,,,,,,,,,,,,,,,:X<<",
"<<+,>>>>>>>>>>>>>>>>,+<<",
"<<@,>>>>>>>>>>>>>>>>,@<<",
"<<@,>>>>>*#######&>>,@<<",
"<<@,>>>>>>>>>>>>>>>>,@<<",
"<<@,>>>>>>>>>>>>>>>>,@<<",
"<<@,>>*##########&>>,@<<",
"<<@,>>>>>>>>>>>>>>>>,@<<",
"<<@,>>>>>>>>>>>>>>>>,@<<",
"<<@,>>>>>>$######->>,@<<",
"<<@,>>>>>>>>>>>>>>>>,@<<",
"<<@,>>>>>>>>>>>>>>>>,@<<",
"<<@,>>>=#########*>>,@<<",
"<<@,>>>>>>>>>>>>>>>>,@<<",
"<<@,>>>>>>>>>>>>>>>>,@<<",
"<<@,>>>>>>%######&>>,@<<",
"<<@,>>>>>>>>>>>>>>>>,@<<",
"<<@,>>>>>>>>>>>>>>>>,@<<",
"<<@,>>>>>>>>>>>>>>>>,@<<",
"<<+,>>>>>>>>>>>>>>>>,+<<",
"<<.:,,,,,,,,,,,,,,,,:.<<",
"<<< oOOOOOOOOOOOOOOo <<<",
"<<<<<<<<<<<<<<<<<<<<<<<<"
};
