/* XPM */
static char *format_text_italic_xpm[] = {
/* columns rows colors chars-per-pixel */
"24 24 143 2 ",
"   c #2E3436",
".  c #303638",
"X  c #313739",
"o  c #313839",
"O  c #33393B",
"+  c #34393B",
"@  c #343A3C",
"#  c #353A3C",
"$  c #373D3E",
"%  c #383D3F",
"&  c #3A4041",
"*  c #3D4244",
"=  c #3E4446",
"-  c #404547",
";  c #43484A",
":  c #464B4D",
">  c #474D4E",
",  c #484D4F",
"<  c #4B5152",
"1  c #4E5455",
"2  c #585D5E",
"3  c #5A5F60",
"4  c #606465",
"5  c #606466",
"6  c #616667",
"7  c #646969",
"8  c #656A6A",
"9  c #656A6B",
"0  c #6A6F6F",
"q  c #727778",
"w  c #787C7C",
"e  c #787D7C",
"r  c #7F8282",
"t  c #848681",
"y  c #858782",
"u  c #838787",
"i  c #878984",
"p  c #888B84",
"a  c #888A85",
"s  c #8C8F89",
"d  c #8A8D8D",
"f  c #8F9393",
"g  c #949898",
"h  c #A1A5A3",
"j  c #A3A7A5",
"k  c #AFB1AF",
"l  c #B2B5B5",
"z  c #B3B6B4",
"x  c #BBBEBE",
"c  c #BFC3C0",
"v  c #C3C6C2",
"b  c #CBCDCC",
"n  c #CFD1CD",
"m  c #D0D2CE",
"M  c #CFD1D0",
"N  c #D1D3D1",
"B  c #D2D4D3",
"V  c #D5D6D3",
"C  c #D6D7D4",
"Z  c #D8DCD5",
"A  c #D9DDD6",
"S  c #DADDD7",
"D  c #DADED7",
"F  c #D9DAD9",
"G  c #DBDED8",
"H  c #DBDFD8",
"J  c #DCDFD9",
"K  c #DCDEDB",
"L  c #DEDFDE",
"P  c #DCE0D9",
"I  c #DDE0D9",
"U  c #DDE0DA",
"Y  c #DEE1DB",
"T  c #DFE1DC",
"R  c #DFE2DC",
"E  c #DFE2DD",
"W  c #E0E3DD",
"Q  c #E0E2DE",
"!  c #E0E3DE",
"~  c #E1E3DE",
"^  c #E1E4DE",
"/  c #E1E4DF",
"(  c #E2E5DF",
")  c #E2E5E0",
"_  c #E3E5E0",
"`  c #E3E6E1",
"'  c #E2E4E2",
"]  c #E4E6E1",
"[  c #E4E6E2",
"{  c #E4E7E2",
"}  c #E5E7E2",
"|  c #E5E7E3",
" . c #E5E8E3",
".. c #E6E8E3",
"X. c #E6E9E4",
"o. c #E7E9E5",
"O. c #E8EAE5",
"+. c #E8EAE6",
"@. c #E9EBE7",
"#. c #EAECE8",
"$. c #EAECE9",
"%. c #EBECE9",
"&. c #EBEDE9",
"*. c #EBECEA",
"=. c #EBEDEA",
"-. c #ECEDEA",
";. c #ECEEEA",
":. c #ECEEEB",
">. c #EDEEEB",
",. c #EDEFEB",
"<. c #EDEFEC",
"1. c #EEEEEC",
"2. c #EEEFEC",
"3. c #EFF0ED",
"4. c #EFF0EE",
"5. c #EFF1EE",
"6. c #F0F1EE",
"7. c #F0F1EF",
"8. c #F0F2EF",
"9. c #F1F2EF",
"0. c #F1F2F0",
"q. c #F1F3F0",
"w. c #F2F3F1",
"e. c #F3F4F2",
"r. c #F4F5F3",
"t. c #F5F6F4",
"y. c #F6F7F5",
"u. c #F7F8F6",
"i. c #F7F8F7",
"p. c #F8F8F7",
"a. c #F8F9F7",
"s. c #F8F9F8",
"d. c #F9F9F8",
"f. c #F9FAF9",
"g. c #FAFAF9",
"h. c #FAFBFA",
"j. c #FBFBFB",
"k. c #FCFCFB",
"l. c gray99",
"z. c #FDFDFD",
"x. c #FEFEFE",
"c. c white",
"v. c None",
/* pixels */
"v.v.v.v.v.v.v.v.v.v.v.v.v.v.v.v.v.v.v.v.v.v.v.v.",
"v.v.s a a a a a a a a a a a a a a a a a a s v.v.",
"v.s n c.c.c.c.c.c.c.c.c.c.c.c.c.c.c.c.c.c.m s v.",
"v.a c.P Z A A J H J J P P P J J H J A A P c.a v.",
"v.a c.A A J P P P P W P W W R P P P P J A c.a v.",
"v.a c.J J P P R / / / / W / ) W / P W P P c.a v.",
"v.a c.P R W W / / ( ' ..' v & 2 ' / W R R c.a v.",
"v.a c.R W W ' [ ......[ [ 2 + X W [ ' / W c.a v.",
"v.a c./ / ' ..o...O.O.+.j X w   v [ ..' / c.a v.",
"v.a c./ { ....o.#.O.#.W - e l   j #...{ [ c.a v.",
"v.a c.' ....o.#.#.#.1.u % H N   r #.o.o...c.a v.",
"v.a c...o.#.#.#.1.1.M o g 3.1.O 3 #.#.#.o.c.a v.",
"v.a c.o.#.#.#.3.3.7.6 , *.0.0.1 $ #.#.#.O.c.a v.",
"v.a c.O.#.#.3.3.7.l   , 9 9 9 *   B 3.:.#.c.a v.",
"v.a c.O.#.3.7.0.#.> - 6 5 5 4 <   k 3.3.1.c.a v.",
"v.a c.#.1.1.7.0.f   b p.s.s.y.x   d 3.3.#.c.a v.",
"v.a c.#.1.3.w.F + q s.s.k.s.a.[   9 7.7.1.c.p v.",
"v.a c.1.#.3.0.0 + L j.k.k.c.j.a.* * 7.7.1.c.a v.",
"v.a c.#.3.8.w.w.y.s.s.c.c.k.s.s.y.t.7.7.1.c.a v.",
"v.i c.1.#.3.w.w.y.s.s.s.j.j.s.s.t.e.7.7.3.c.i v.",
"v.a V c.c.c.c.c.c.c.c.c.c.c.c.c.c.c.c.c.c.C i v.",
"v.v.y i a a a a a a a a a a a a a a a a i t v.v.",
"v.v.v.v.v.v.v.v.v.v.v.v.v.v.v.v.v.v.v.v.v.v.v.v.",
"v.v.v.v.v.v.v.v.v.v.v.v.v.v.v.v.v.v.v.v.v.v.v.v."
};
