/* XPM */
static char *format_text_underline_xpm[] = {
/* columns rows colors chars-per-pixel */
"24 24 135 2 ",
"   c #2E3436",
".  c #313739",
"X  c #33393A",
"o  c #353B3D",
"O  c #353C3D",
"+  c #363C3E",
"@  c #373D3F",
"#  c #383E3E",
"$  c #383E40",
"%  c #404547",
"&  c #414648",
"*  c #43484A",
"=  c #454B4C",
"-  c #4A5051",
";  c #4D5253",
":  c #505555",
">  c #505557",
",  c #54595B",
"<  c #555A5A",
"1  c #565A5B",
"2  c #64696A",
"3  c #696D6D",
"4  c #6C7172",
"5  c #747778",
"6  c #757979",
"7  c #767B7B",
"8  c #7E8281",
"9  c #848681",
"0  c #858782",
"q  c #878984",
"w  c #888B84",
"e  c #888A85",
"r  c #898D8B",
"t  c #8C8F89",
"y  c #8B8F8E",
"u  c #8D928F",
"i  c #919594",
"p  c #939797",
"a  c #979A99",
"s  c #999E9B",
"d  c #A0A4A3",
"f  c #A0A4A4",
"g  c #A1A4A4",
"h  c #AFB1B2",
"j  c #B0B3B0",
"k  c #B3B7B5",
"l  c #C0C3C0",
"z  c #C0C2C1",
"x  c #C3C4C2",
"c  c #CFD1CD",
"v  c #D0D2CE",
"b  c #D3D5D3",
"n  c #D5D6D3",
"m  c #D6D7D4",
"M  c #D5D7D6",
"N  c #D8DBD7",
"B  c #D8DCD5",
"V  c #D9DDD6",
"C  c #DADDD7",
"Z  c #DADED7",
"A  c #D9DBD9",
"S  c #DBDDD9",
"D  c #DBDED8",
"F  c #DBDFD8",
"G  c #DCDFD9",
"H  c #DCDDDC",
"J  c #DCE0D9",
"K  c #DDE0D9",
"L  c #DDE0DA",
"P  c #DEE1DB",
"I  c #DFE1DC",
"U  c #DFE2DC",
"Y  c #DFE2DD",
"T  c #E0E3DD",
"R  c #E0E3DE",
"E  c #E1E3DE",
"W  c #E1E4DE",
"Q  c #E1E4DF",
"!  c #E2E5DF",
"~  c #E2E5E0",
"^  c #E3E5E0",
"/  c #E3E6E1",
"(  c #E4E6E1",
")  c #E4E6E2",
"_  c #E4E7E2",
"`  c #E5E7E2",
"'  c #E5E7E3",
"]  c #E6E7E4",
"[  c #E5E8E3",
"{  c #E6E8E3",
"}  c #E6E8E4",
"|  c #E6E9E4",
" . c #E7E9E5",
".. c #E8EAE5",
"X. c #E8EAE6",
"o. c #E9EBE7",
"O. c #EBEBEA",
"+. c #EAECE8",
"@. c #EAECE9",
"#. c #EBECE9",
"$. c #EBEDE9",
"%. c #EBEDEA",
"&. c #EBECEB",
"*. c #ECEDEA",
"=. c #ECEEEA",
"-. c #EDEEEB",
";. c #EDEFEB",
":. c #EDEFEC",
">. c #EEEEEC",
",. c #EEEFEC",
"<. c #EEEEED",
"1. c #EFF0ED",
"2. c #EFF0EE",
"3. c #EFF1EE",
"4. c #F0F1EF",
"5. c #F1F2F0",
"6. c #F1F3F0",
"7. c #F3F3F2",
"8. c #F3F4F2",
"9. c #F4F5F3",
"0. c #F5F6F4",
"q. c #F6F6F5",
"w. c #F7F8F6",
"e. c #F7F8F7",
"r. c #F8F8F7",
"t. c #F8F9F8",
"y. c #F9F9F8",
"u. c #F9FAF9",
"i. c #FAFAF9",
"p. c #FAFBFA",
"a. c #FBFBFB",
"s. c #FCFCFB",
"d. c #FDFDFD",
"f. c white",
"g. c None",
/* pixels */
"g.g.g.g.g.g.g.g.g.g.g.g.g.g.g.g.g.g.g.g.g.g.g.g.",
"g.g.t e e e e e e e e e e e e e e q e e e t g.g.",
"g.t c f.f.f.f.f.f.f.f.f.f.f.f.f.f.f.f.f.f.v t g.",
"g.e f.J N V V G F G G J J J G G F F V F J f.e g.",
"g.e f.V V G J J T H G T T U U J U G G F V f.e g.",
"g.e f.G G J H U T ~ T u $ r ~ T U U U G J f.e g.",
"g.e f.J U T T ~ ! ! ~ = + & ~ ~ / T U U U f.e g.",
"g.e f.U T T / / ' ' k   s   j ' ' / / ! T f.e g.",
"g.e f.T ! / { { { ..4 :  .% 3  .{ { { / ! f.e g.",
"g.q f.! / { { ....G X i @.8 . N +...{ { / f.e g.",
"g.e f./ {  . .@.O.a   b >.z   i @.+. . .{ f.q g.",
"g.e f.{  .+.+.@.>.; 1 >.3.>.* ; 1.@.+.+. .f.q g.",
"g.e f. ...@.=.3.z   y H A b 6   z 1.@.+...f.e g.",
"g.e f...@.=.3.>.7               6 >.1.@.@.f.e g.",
"g.e f...@.3.>.] + 2 >.>.4.7.9.> + ' 3.1.=.f.e g.",
"g.e f.@.@.>.7.g   j 9.r.t.t.e.f   d 3.>.=.f.e g.",
"g.e f.@.=.4.4.1 # 4.t.i.i.i.t.&.$ , 4.3.=.f.e g.",
"g.e f.=.=.4.4.8.9.t.i.s.s.f.t.y.r.7.7.>.=.f.e g.",
"g.e f.@.=.3.8.        .             7.3.=.f.e g.",
"g.q f.>.=.3.4.8.9.t.t.t.i.s.t.t.9.7.4.4.4.f.q g.",
"g.e n f.f.f.f.f.f.f.f.f.f.f.f.f.f.f.f.f.f.n q g.",
"g.g.0 q e e e e e e e e e e e e e e e e q 0 g.g.",
"g.g.g.g.g.g.g.g.g.g.g.g.g.g.g.g.g.g.g.g.g.g.g.g.",
"g.g.g.g.g.g.g.g.g.g.g.g.g.g.g.g.g.g.g.g.g.g.g.g."
};
