/* XPM */
static char *format_text_color_xpm[] = {
/* columns rows colors chars-per-pixel */
"24 24 61 1 ",
"  c gray2",
". c #060606",
"X c #101010",
"o c #111111",
"O c gray11",
"+ c #272727",
"@ c #323232",
"# c gray24",
"$ c #3E2470",
"% c #2B3F7C",
"& c #563567",
"* c #573369",
"= c #3A4360",
"- c #374778",
"; c #366767",
": c #2B7070",
"> c #2E7676",
", c gray28",
"< c #46414E",
"1 c #484848",
"2 c #4F4D53",
"3 c #524758",
"4 c #4E5252",
"5 c gray33",
"6 c #57585A",
"7 c gray35",
"8 c #5F5F5F",
"9 c #4B7979",
"0 c #626262",
"q c #6A6A6A",
"w c gray42",
"e c #747474",
"r c gray46",
"t c #7C7C7C",
"y c red",
"u c #00CC00",
"i c #98FF00",
"p c #3A1681",
"a c #330197",
"s c #330098",
"d c #163AA5",
"f c #621B85",
"g c #631788",
"h c #65198A",
"j c #670696",
"k c #660E90",
"l c #670098",
"z c #682987",
"x c #0134CA",
"c c #0033CC",
"v c #CC0099",
"b c #178888",
"n c #069696",
"m c #0E9191",
"M c #009898",
"N c #019898",
"B c #009999",
"V c #278383",
"C c #808080",
"Z c gray52",
"A c None",
/* pixels */
"AAAAAAAAAAAAAAAAAAAAAAAA",
"AAAAAAAAcccAAAssAAAAAAAA",
"AAA,,,,=ddd-<ppp$,,,,AAA",
"AAA4;:AAxcc-2sssAA**3AAA",
"AAA>bNNAAcA67AsAAAlgfAAA",
"AAAVmNNAAAA00AAAAAlkhAAA",
"AAA9nNNAAAAwwAAAAAljzAAA",
"AAAAAAAAAAAerAAAAAAAAAAA",
"AuuuAAAAAAAttAAAAAAAAvvA",
"AuuuAAAAAAAZZAAAAAAAvvvA",
"AuuuAAAAAAACCAAAAAAAvvvA",
"AAuAAAAAAAArrAAAAAAAAvAA",
"AAAAAAAAAAAqqAAAAAAAAAAA",
"AAiiAAAAAAA88AAAAAAAAyyA",
"AiiiAAAAAAA55AAAAAAAyyyA",
"AiiiAAAAAAA11AAAAAAAyyyA",
"AAiAAAAAAAA##AAAAAAAAyyA",
"AAAAAAAAAAA@@AAAAAAAAAAA",
"AAAAAAAAAAA++AAAAAAAAAAA",
"AAAAAAAAAAAOOAAAAAAAAAAA",
"AAAAAAAAAAooooAAAAAAAAAA",
"AAAAAAAA . . .  AAAAAAAA",
"AAAAAAAAAAAAAAAAAAAAAAAA",
"AAAAAAAAAAAAAAAAAAAAAAAA"
};
