/* XPM */
static char *format_text_bold_xpm[] = {
/* columns rows colors chars-per-pixel */
"24 24 121 2 ",
"   c #2E3436",
".  c #33393B",
"X  c #343A3C",
"o  c #363C3E",
"O  c #3C4143",
"+  c #404547",
"@  c #44494B",
"#  c #4A4F50",
"$  c #4A4F51",
"%  c #4B5052",
"&  c #515758",
"*  c #525759",
"=  c #595E5F",
"-  c #6E7372",
";  c #707474",
":  c #75797A",
">  c #777C7C",
",  c #787C7D",
"<  c #7A7E7E",
"1  c #7D8181",
"2  c #7D8282",
"3  c #7E8282",
"4  c #848681",
"5  c #858782",
"6  c #818585",
"7  c #878984",
"8  c #888B84",
"9  c #888A85",
"0  c #8C8F89",
"q  c #8A8E8D",
"w  c #959897",
"e  c #979B9A",
"r  c #9A9F9D",
"t  c #9FA2A1",
"y  c #A1A3A3",
"u  c #B6B9B6",
"i  c #B7B9B9",
"p  c #BBBEBC",
"a  c #BCBFBD",
"s  c #BEC0BF",
"d  c #C1C4C0",
"f  c #C2C4C5",
"g  c #C7C9C8",
"h  c #CBCDCB",
"j  c #CFD1CD",
"k  c #D0D2CE",
"l  c #D5D6D3",
"z  c #D6D7D4",
"x  c #D8DBD6",
"c  c #D8DCD5",
"v  c #D9DDD6",
"b  c #DADDD7",
"n  c #DADED7",
"m  c #DBDED8",
"M  c #DBDFD8",
"N  c #DCDFD9",
"B  c #DCE0D9",
"V  c #DDE0D9",
"C  c #DDE0DA",
"Z  c #DEE1DB",
"A  c #DFE1DC",
"S  c #DEE0DD",
"D  c #DFE2DC",
"F  c #DFE2DD",
"G  c #E0E3DD",
"H  c #E0E3DE",
"J  c #E1E3DE",
"K  c #E1E4DE",
"L  c #E1E4DF",
"P  c #E2E5DF",
"I  c #E1E3E0",
"U  c #E2E5E0",
"Y  c #E3E5E0",
"T  c #E3E6E1",
"R  c #E4E6E1",
"E  c #E4E6E2",
"W  c #E4E7E2",
"Q  c #E5E7E2",
"!  c #E5E7E3",
"~  c #E6E7E5",
"^  c #E5E8E3",
"/  c #E6E8E3",
"(  c #E6E9E4",
")  c #E7E9E5",
"_  c #E8EAE5",
"`  c #E8EAE6",
"'  c #E9EBE7",
"]  c #EAECE8",
"[  c #EAECE9",
"{  c #EBEDE9",
"}  c #EBEDEA",
"|  c #ECEDEA",
" . c #ECEEEA",
".. c #EDEEEB",
"X. c #EDEFEB",
"o. c #EDEFEC",
"O. c #EEEEEC",
"+. c #EEEFEC",
"@. c #EEEFED",
"#. c #EFF0ED",
"$. c #EFF0EE",
"%. c #EFF1EE",
"&. c #F1F2F0",
"*. c #F1F3F0",
"=. c #F3F4F2",
"-. c #F4F5F3",
";. c #F5F6F4",
":. c #F6F7F5",
">. c #F7F8F7",
",. c #F8F9F7",
"<. c #F9F9F8",
"1. c #F9FAF9",
"2. c #FAFAF9",
"3. c #FAFBFA",
"4. c #FBFBFB",
"5. c #FCFCFB",
"6. c gray99",
"7. c #FDFDFD",
"8. c #FEFEFE",
"9. c white",
"0. c None",
/* pixels */
"0.0.0.0.0.0.0.0.0.0.0.0.0.0.0.0.0.0.0.0.0.0.0.0.",
"0.0.0 9 9 9 9 9 9 9 9 9 9 9 9 9 9 9 9 9 9 0 0.0.",
"0.0 j 9.9.9.9.9.9.9.9.9.9.9.9.9.9.9.9.9.9.k 0 0.",
"0.9 9.B x v v N m B N B B B N N m N v v B 9.9 0.",
"0.9 9.v v N m N B G B G G G D B D N N m v 9.9 0.",
"0.9 9.N N B D D G G L L G L I G D D D N B 9.9 0.",
"0.9 9.B D G G I R u . . . . r R T I G G D 9.9 0.",
"0.9 9.D G G T T R -         * R R T T G G 9.9 0.",
"0.9 9.G T T R R x .           d / / / T L 9.9 0.",
"0.9 9.T R ! ) ' w     + $     , ' ) / / T 9.9 0.",
"0.9 9.R R ' ] ] $     1 q     . I { ' ) / 9.9 0.",
"0.9 9.R ) '  .p       p h       t { ' ' ) 9.9 0.",
"0.9 9.) ' ]  .;     O $.=.%     * $. .] ' 9.9 0.",
"0.9 9.' {  .N .     @ 1 1 %       g $.{ { 9.9 0.",
"0.9 9.' {  .e                     , &. .{ 9.9 0.",
"0.7 9.]  .@.%                     o R @.{ 9.9 0.",
"0.9 9.]  .p       , ,.4.4.,.6       y $.#.9.8 0.",
"0.9 9.{ @.: . . X i 4.5.5.5.f X X X = $.#.5.9 0.",
"0.9 9.{  .&.-.;.>.>.4.9.9.5.4.>.>.-.*.$. .9.9 0.",
"0.7 9.@. .@.&.-.;.;.>.4.5.4.4.;.-.=.&.$.$.9.7 0.",
"0.9 l 9.9.9.9.9.9.9.9.9.9.9.9.9.9.9.9.9.9.z 7 0.",
"0.0.5 7 9 9 9 9 9 9 9 9 9 9 9 9 9 9 9 9 7 5 0.0.",
"0.0.0.0.0.0.0.0.0.0.0.0.0.0.0.0.0.0.0.0.0.0.0.0.",
"0.0.0.0.0.0.0.0.0.0.0.0.0.0.0.0.0.0.0.0.0.0.0.0."
};
