/* XPM */
static char *format_justify_center_xpm[] = {
/* columns rows colors chars-per-pixel */
"24 24 18 1 ",
"  c #898B86",
". c #8A8C87",
"X c #8F918C",
"o c #92948F",
"O c #939590",
"+ c #959692",
"@ c #979994",
"# c gray73",
"$ c #D3D4D3",
"% c #D5D5D4",
"& c #D7D7D6",
"* c #D9DAD9",
"= c #DBDBDA",
"- c #ECEDEC",
"; c #EDEDEC",
": c #F4F5F3",
"> c #FEFEFE",
", c None",
/* pixels */
",,,XOOOOOOOOOOOOOOOoX,,,",
",,X;>>>>>>>>>>>>>>>>;X,,",
",,+>::::::::::::::::>+,,",
",,@>::::::::::::::::>@,,",
",,@>:::%#######$::::>@,,",
",,@>::::::::::::::::>@,,",
",,@>::::::::::::::::>@,,",
",,@>::%##########%::>@,,",
",,@>::::::::::::::::>@,,",
",,@>::::::::::::::::>@,,",
",,@>::::%######*::::>@,,",
",,@>::::::::::::::::>@,,",
",,@>::::::::::::::::>@,,",
",,@>::*##########*::>@,,",
",,@>::::::::::::::::>@,,",
",,@>::::::::::::::::>@,,",
",,@>:::*#######*::::>@,,",
",,@>::::::::::::::::>@,,",
",,@>::::::::::::::::>@,,",
",,@>::::::::::::::::>@,,",
",,+>::::::::::::::::>+,,",
",,.;>>>>>>>>>>>>>>>>;.,,",
",,, oO+oOOOOOOOOOOOo.,,,",
",,,,,,,,,,,,,,,,,,,,,,,,"
};
