/* XPM */
static char *list_xpm[] = {
/* columns rows colors chars-per-pixel */
"24 24 57 1 ",
"  c black",
". c #6D6D6D",
"X c gray43",
"o c #6F6F6F",
"O c gray44",
"+ c #717171",
"@ c #727272",
"# c gray45",
"$ c #747474",
"% c gray46",
"& c #767676",
"* c #777777",
"= c gray47",
"- c #838383",
"; c #868686",
": c gray74",
"> c #C3C3C3",
", c gray79",
"< c gray80",
"1 c #CDCDCD",
"2 c #D7D7D7",
"3 c #D8D8D8",
"4 c #DADADA",
"5 c gray86",
"6 c gray88",
"7 c #E1E1E1",
"8 c #E2E2E2",
"9 c gray89",
"0 c #E4E4E4",
"q c gray90",
"w c #E6E6E6",
"e c #E7E7E7",
"r c gray91",
"t c #E9E9E9",
"y c #EAEAEA",
"u c gray92",
"i c #ECECEC",
"p c gray93",
"a c #EEEEEE",
"s c #EFEFEF",
"d c gray94",
"f c #F1F1F1",
"g c gray95",
"h c #F3F3F3",
"j c #F4F4F4",
"k c gray96",
"l c #F6F6F6",
"z c gray97",
"x c #F8F8F8",
"c c #F9F9F9",
"v c gray98",
"b c #FBFBFB",
"n c gray99",
"m c #FDFDFD",
"M c #FEFEFE",
"N c white",
"B c None",
/* pixels */
"B                    BBB",
" 8ggggggjjjjjjjjjxxj5 BB",
" g85880000ttttpppppgp BB",
" g881X000ttttttpppppg BB",
" g01XX0ttOOOOOO$O$ggj BB",
" g000X0ttttppppppgggj BB",
" j000O0ttXOO$O$$O$gjj BB",
" g00tXtttpppppgpgggjj BB",
" jt0ttttt;$O$O$gjjjjx BB",
" j0tttppppppgggjjjjjx BB",
" jtttptpppgpggjjjxxxx BB",
" jtttpppgpgggjjjjxxxx BB",
" jpp>O5ggggggjjxxxxxx BB",
" xptOpOgg$$;$$$===MxM BB",
" xppp2OgggjjjjxxxxMxM BB",
" xpp5$5gg$=$=====xMMM BB",
" xpg$$$jjxxxxxxMxMMMM BB",
" xggjjjjjxxxxMMMMMMMM BB",
" ggjjjjxxxxxMxMMMMMMp BB",
" ,pxjjxxxxMMMMMMMMMp: BB",
"B                    BBB",
"BBBBBBBBBBBBBBBBBBBBBBBB",
"BBBBBBBBBBBBBBBBBBBBBBBB",
"BBBBBBBBBBBBBBBBBBBBBBBB"
};
