/* XPM */
static char *list_add_xpm[] = {
/* columns rows colors chars-per-pixel */
"24 24 127 2 ",
"   c #204A87",
".  c #204B88",
"X  c #214C88",
"o  c #214C89",
"O  c #224C89",
"+  c #224D89",
"@  c #234D89",
"#  c #4B7AB4",
"$  c #4D7CB5",
"%  c #4D7DB5",
"&  c #4F7EB6",
"*  c #507FB7",
"=  c #5180B8",
"-  c #5281B9",
";  c #5382BA",
":  c #5783B8",
">  c #5483BA",
",  c #5584BB",
"<  c #5685BB",
"1  c #5685BC",
"2  c #5785BC",
"3  c #5786BC",
"4  c #5B85BA",
"5  c #5B86BA",
"6  c #5887BD",
"7  c #5987BD",
"8  c #5E89BB",
"9  c #5988BE",
"0  c #5A89BE",
"q  c #5B89BF",
"w  c #5D88BC",
"e  c #5F89BC",
"r  c #5C8ABF",
"t  c #628BBD",
"y  c #608ABE",
"u  c #618BBE",
"i  c #638DBF",
"p  c #648EBF",
"a  c #5C8BC0",
"s  c #5D8BC0",
"d  c #5D8CC1",
"f  c #5E8CC1",
"g  c #5F8DC2",
"h  c #608EC2",
"j  c #618FC3",
"k  c #658FC0",
"l  c #668FC0",
"z  c #6790C0",
"x  c #6790C1",
"c  c #6290C4",
"v  c #6391C4",
"b  c #6491C5",
"n  c #6492C5",
"m  c #6592C6",
"M  c #6693C6",
"N  c #6694C6",
"B  c #6694C7",
"V  c #6794C7",
"C  c #6795C7",
"Z  c #6992C2",
"A  c #6A93C2",
"S  c #6B93C3",
"D  c #6C95C4",
"F  c #6D95C4",
"G  c #6E95C4",
"H  c #6F97C5",
"J  c #6F97C6",
"K  c #6895C8",
"L  c #6896C8",
"P  c #6996C8",
"I  c #6A97C9",
"U  c #6A98CA",
"Y  c #6B98CA",
"T  c #6B99CA",
"R  c #6C99CB",
"E  c #6D9ACB",
"W  c #6D9BCC",
"Q  c #6E9CCC",
"!  c #6F9CCD",
"~  c #7198C6",
"^  c #729AC7",
"/  c #749AC8",
"(  c #759BC8",
")  c #769CC9",
"_  c #769DC9",
"`  c #709DCD",
"'  c #719ECE",
"]  c #729FCF",
"[  c #789FCA",
"{  c #799FCA",
"}  c #7CA1CC",
"|  c #7DA1CD",
" . c #7FA4CD",
".. c #7FA5CE",
"X. c #81A5CF",
"o. c #82A6CF",
"O. c #85A8D1",
"+. c #86A9D1",
"@. c #88ABD3",
"#. c #88ACD3",
"$. c #8BADD4",
"%. c #8BAED4",
"&. c #8EB0D5",
"*. c #8FB0D6",
"=. c #8FB1D7",
"-. c #90B2D7",
";. c #91B2D7",
":. c #92B3D7",
">. c #93B5D8",
",. c #92B4D9",
"<. c #94B4D8",
"1. c #95B5D9",
"2. c #95B6DA",
"3. c #96B6DA",
"4. c #97B7DA",
"5. c #98B9DB",
"6. c #98B9DC",
"7. c #9BBADC",
"8. c #9CBBDC",
"9. c #9CBBDD",
"0. c #9CBCDD",
"q. c #9EBCDD",
"w. c #9EBDDE",
"e. c #9FBEDE",
"r. c #A0BEDF",
"t. c #A1BFDF",
"y. c None",
/* pixels */
"y.y.y.y.y.y.y.y.y.y.y.y.y.y.y.y.y.y.y.y.y.y.y.y.",
"y.y.y.y.y.y.y.y.y.            y.y.y.y.y.y.y.y.y.",
"y.y.y.y.y.y.y.y.y.  t.t.e.e.@ y.y.y.y.y.y.y.y.y.",
"y.y.y.y.y.y.y.y.y.  e.] ] 6.@ y.y.y.y.y.y.y.y.y.",
"y.y.y.y.y.y.y.y.y.  e.] Q 2.@ y.y.y.y.y.y.y.y.y.",
"y.y.y.y.y.y.y.y.y.. 6.Q Q -.@ y.y.y.y.y.y.y.y.y.",
"y.y.y.y.y.y.y.y.y.  6.E U =.@ y.y.y.y.y.y.y.y.y.",
"y.y.y.y.y.y.y.y.y.  2.U P $.@ y.y.y.y.y.y.y.y.y.",
"y.y.y.y.y.y.y.y.y.  ;.P K #.@ y.y.y.y.y.y.y.y.y.",
"y.                  &.m m O.@                 y.",
"y.  t.e.8.5.2.>.;.&.$.m v X. .} } / / H H Z   y.",
"y.  e.Q E U U C V m v j f f a q q , , : - i   y.",
"y.  6.E U P V V v v c f f r q 6 , , : - * t   y.",
"y.  4.2.;.&.$.#.O.X. .a q _ / ~ H Z l j t r   y.",
"y.  @ @ @ @ @ @ @ @ } 6 q ~ @                 y.",
"y.y.y.y.y.y.y.y.y.. } 6 , H @ y.y.y.y.y.y.y.y.y.",
"y.y.y.y.y.y.y.y.y.  ( , , S @ y.y.y.y.y.y.y.y.y.",
"y.y.y.y.y.y.y.y.y.  ~ - - Z @ y.y.y.y.y.y.y.y.y.",
"y.y.y.y.y.y.y.y.y.  H - $ i X y.y.y.y.y.y.y.y.y.",
"y.y.y.y.y.y.y.y.y.  Z $ $ t X y.y.y.y.y.y.y.y.y.",
"y.y.y.y.y.y.y.y.y.  l $ # 5 @ y.y.y.y.y.y.y.y.y.",
"y.y.y.y.y.y.y.y.y.  t 8 5 :   y.y.y.y.y.y.y.y.y.",
"y.y.y.y.y.y.y.y.y.            y.y.y.y.y.y.y.y.y.",
"y.y.y.y.y.y.y.y.y.y.y.y.y.y.y.y.y.y.y.y.y.y.y.y."
};
