/* XPM */
static char *tdateedit_xpm[] = {
/* columns rows colors chars-per-pixel */
"24 24 21 1 ",
"  c #003C74",
". c #144A7E",
"X c #154C7F",
"o c #B30059",
"O c #164D80",
"+ c #174E80",
"@ c #386CBE",
"# c #777792",
"$ c #6A96DD",
"% c #FFA4A4",
"& c #8CACDD",
"* c #C0C1C3",
"= c #DFDFDB",
"- c #D9DAE7",
"; c #CEDDF4",
": c #E6E8F2",
"> c #F6F7FD",
", c #FCFCFA",
"< c #FDFDFD",
"1 c white",
"2 c None",
/* pixels */
"222222222222222222222222",
"2###############2     22",
"2#************** ,1111X2",
"2#*11111111111,* >>>>>X2",
"2#*11111111111,* :::::X2",
"2#*11111111111,* -----.2",
"2#*111*##############*.2",
"2#****#;;;;;;;;%;%;%;#22",
"2######$$$$$$$%o%o%o%#*2",
"222222################*2",
"222222#==============#*2",
"222222#==##########==#*2",
"222222#==============#*2",
"222222#===@@===@@@@==#*2",
"222222#==@@@===@&====#*2",
"222222#===&@===@@@===#*2",
"222222#===&@=====&@==#*2",
"222222#===&@===&=&@==#*2",
"222222#===&@===@&&@==#*2",
"222222#==@@@@@==@@===#*2",
"222222#==============#*2",
"222222################*2",
"2222222****************2",
"222222222222222222222222"
};
